<svg width="25" height="21" viewBox="0 0 25 21" fill="none" xmlns="http://www.w3.org/2000/svg">
<path d="M23.3871 0H1.6129C1.18531 0.000560118 0.775384 0.17067 0.473027 0.473027C0.17067 0.775384 0.000560118 1.18531 0 1.6129V15.3226C0.000560118 15.7502 0.17067 16.1601 0.473027 16.4625C0.775384 16.7648 1.18531 16.9349 1.6129 16.9355H9.92439L9.38659 18.5484H8.06452C7.95757 18.5484 7.85501 18.5909 7.77939 18.6665C7.70377 18.7421 7.66129 18.8447 7.66129 18.9516V19.7581H4.03226C3.92532 19.7581 3.82275 19.8005 3.74713 19.8762C3.67151 19.9518 3.62903 20.0543 3.62903 20.1613C3.62903 20.2682 3.67151 20.3708 3.74713 20.4464C3.82275 20.522 3.92532 20.5645 4.03226 20.5645H21.7742C21.8811 20.5645 21.9837 20.522 22.0593 20.4464C22.1349 20.3708 22.1774 20.2682 22.1774 20.1613C22.1774 20.0543 22.1349 19.9518 22.0593 19.8762C21.9837 19.8005 21.8811 19.7581 21.7742 19.7581H17.3387V18.9516C17.3387 18.8447 17.2962 18.7421 17.2206 18.6665C17.145 18.5909 17.0424 18.5484 16.9355 18.5484H15.6134L15.0756 16.9355H23.3871C23.8147 16.9349 24.2246 16.7648 24.527 16.4625C24.8293 16.1601 24.9994 15.7502 25 15.3226V1.6129C24.9994 1.18531 24.8293 0.775384 24.527 0.473027C24.2246 0.17067 23.8147 0.000560118 23.3871 0ZM16.5323 19.3548V19.7581H8.46774V19.3548H16.5323ZM10.2369 18.5484L10.7747 16.9355H14.2253L14.7631 18.5484H10.2369ZM24.1935 15.3226C24.1933 15.5364 24.1082 15.7413 23.957 15.8925C23.8059 16.0437 23.6009 16.1288 23.3871 16.129H1.6129C1.3991 16.1288 1.19414 16.0437 1.04297 15.8925C0.891787 15.7413 0.806732 15.5364 0.806452 15.3226V14.5161H24.1935V15.3226ZM6.8377 10.0806L6.68649 13.7097H6.21673L6.06552 10.0806H6.8377ZM6.12097 9.27419L6.39012 7.66129H6.5131L6.78226 9.27419H6.12097ZM6.45161 6.85484C6.01462 6.85484 5.64516 6.30091 5.64516 5.64516C5.64516 5.23135 6.06754 4.63004 6.4506 4.20615C6.79587 4.58921 7.25806 5.20161 7.25806 5.64516C7.25806 6.30091 6.88861 6.85484 6.45161 6.85484ZM10.8397 6.04839L10.8871 6.14365V6.45161H9.27419V6.14365L9.32157 6.04839H10.8397ZM9.7248 5.24194L10.0806 4.53075L10.4365 5.24194H9.7248ZM10.8871 7.25806V13.6593C10.8873 13.6761 10.8884 13.693 10.8906 13.7097H9.27067C9.27286 13.693 9.27404 13.6761 9.27419 13.6593V7.25806H10.8871ZM14.5161 5.64516H15.7258V6.45161H15.3226C15.2156 6.45161 15.1131 6.4941 15.0375 6.56971C14.9618 6.64533 14.9194 6.7479 14.9194 6.85484C14.9194 6.96178 14.9618 7.06434 15.0375 7.13996C15.1131 7.21558 15.2156 7.25806 15.3226 7.25806H15.7258V8.06452H14.5161C14.4092 8.06452 14.3066 8.107 14.231 8.18262C14.1554 8.25824 14.1129 8.3608 14.1129 8.46774C14.1129 8.57468 14.1554 8.67725 14.231 8.75287C14.3066 8.82849 14.4092 8.87097 14.5161 8.87097H15.7258V9.67742H15.3226C15.2156 9.67742 15.1131 9.7199 15.0375 9.79552C14.9618 9.87114 14.9194 9.9737 14.9194 10.0806C14.9194 10.1876 14.9618 10.2901 15.0375 10.3658C15.1131 10.4414 15.2156 10.4839 15.3226 10.4839H15.7258V11.2903H14.5161C14.4092 11.2903 14.3066 11.3328 14.231 11.4084C14.1554 11.484 14.1129 11.5866 14.1129 11.6935C14.1129 11.8005 14.1554 11.9031 14.231 11.9787C14.3066 12.0543 14.4092 12.0968 14.5161 12.0968H15.7258V13.7097H12.9032V4.03226H15.7258V4.83871H14.5161C14.4092 4.83871 14.3066 4.88119 14.231 4.95681C14.1554 5.03243 14.1129 5.13499 14.1129 5.24194C14.1129 5.34888 14.1554 5.45144 14.231 5.52706C14.3066 5.60268 14.4092 5.64516 14.5161 5.64516ZM19.3548 10.4839V13.6593C19.355 13.6761 19.3562 13.693 19.3584 13.7097H17.7384C17.7406 13.693 17.7418 13.6761 17.7419 13.6593V10.4839H19.3548ZM17.7419 9.67742V9.36946L18.5484 7.75655L19.3548 9.36946V9.67742H17.7419ZM24.1935 13.7097H20.1578C20.16 13.693 20.1611 13.6761 20.1613 13.6593V9.27419C20.1612 9.21159 20.1467 9.14984 20.119 9.09375L18.9093 6.6744C18.8757 6.60743 18.8242 6.55113 18.7604 6.51178C18.6967 6.47243 18.6233 6.4516 18.5484 6.4516C18.4735 6.4516 18.4001 6.47243 18.3363 6.51178C18.2726 6.55113 18.2211 6.60743 18.1875 6.6744L16.9778 9.09375C16.95 9.14984 16.9355 9.21159 16.9355 9.27419V13.6593C16.9356 13.6761 16.9368 13.693 16.939 13.7097H16.5323V3.62903C16.5323 3.52209 16.4898 3.41953 16.4142 3.34391C16.3385 3.26829 16.236 3.22581 16.129 3.22581H12.5C12.3931 3.22581 12.2905 3.26829 12.2149 3.34391C12.1393 3.41953 12.0968 3.52209 12.0968 3.62903V13.7097H11.69C11.6922 13.693 11.6934 13.6761 11.6935 13.6593V6.04839C11.6935 5.98578 11.679 5.92404 11.6512 5.86794L10.4415 3.44859C10.408 3.38163 10.3564 3.32532 10.2927 3.28598C10.229 3.24663 10.1555 3.22579 10.0806 3.22579C10.0057 3.22579 9.93232 3.24663 9.86858 3.28598C9.80485 3.32532 9.75332 3.38163 9.71976 3.44859L8.51008 5.86794C8.48229 5.92404 8.4678 5.98578 8.46774 6.04839V13.6593C8.4679 13.6761 8.46907 13.693 8.47127 13.7097H7.49345L7.66079 9.69405C7.66129 9.68498 7.66079 9.67591 7.66079 9.66633V9.65423C7.65985 9.64004 7.65817 9.62591 7.65575 9.6119V9.61089L7.28276 7.37248C7.75101 7.01915 8.06452 6.37702 8.06452 5.64516C8.06452 4.60887 6.86341 3.46119 6.72631 3.33367C6.6516 3.26442 6.55349 3.22594 6.45161 3.22594C6.34974 3.22594 6.25163 3.26442 6.17692 3.33367C6.03982 3.46119 4.83871 4.60887 4.83871 5.64516C4.83871 6.37702 5.15222 7.01915 5.62046 7.37248L5.24748 9.61089V9.6119C5.24506 9.62591 5.24337 9.64004 5.24244 9.65423V9.66633C5.24244 9.67591 5.24194 9.68498 5.24244 9.69405L5.40978 13.7097H0.806452V1.6129C0.806732 1.3991 0.891787 1.19414 1.04297 1.04297C1.19414 0.891787 1.3991 0.806732 1.6129 0.806452H23.3871C23.6009 0.806732 23.8059 0.891787 23.957 1.04297C24.1082 1.19414 24.1933 1.3991 24.1935 1.6129V13.7097Z" fill="black"/>
<path d="M4.43586 14.9189H2.01651C1.90956 14.9189 1.807 14.9614 1.73138 15.037C1.65576 15.1127 1.61328 15.2152 1.61328 15.3222C1.61328 15.4291 1.65576 15.5317 1.73138 15.6073C1.807 15.6829 1.90956 15.7254 2.01651 15.7254H4.43586C4.5428 15.7254 4.64537 15.6829 4.72099 15.6073C4.79661 15.5317 4.83909 15.4291 4.83909 15.3222C4.83909 15.2152 4.79661 15.1127 4.72099 15.037C4.64537 14.9614 4.5428 14.9189 4.43586 14.9189Z" fill="black"/>
<path d="M6.04864 14.9189H5.64541C5.53847 14.9189 5.43591 14.9614 5.36029 15.037C5.28467 15.1127 5.24219 15.2152 5.24219 15.3222C5.24219 15.4291 5.28467 15.5317 5.36029 15.6073C5.43591 15.6829 5.53847 15.7254 5.64541 15.7254H6.04864C6.15558 15.7254 6.25814 15.6829 6.33376 15.6073C6.40938 15.5317 6.45186 15.4291 6.45186 15.3222C6.45186 15.2152 6.40938 15.1127 6.33376 15.037C6.25814 14.9614 6.15558 14.9189 6.04864 14.9189Z" fill="black"/>
<path d="M10.081 7.66113C9.97402 7.66113 9.87146 7.70362 9.79584 7.77923C9.72022 7.85485 9.67773 7.95742 9.67773 8.06436V12.4998C9.67773 12.6068 9.72022 12.7093 9.79584 12.785C9.87146 12.8606 9.97402 12.9031 10.081 12.9031C10.1879 12.9031 10.2905 12.8606 10.3661 12.785C10.4417 12.7093 10.4842 12.6068 10.4842 12.4998V8.06436C10.4842 7.95742 10.4417 7.85485 10.3661 7.77923C10.2905 7.70362 10.1879 7.66113 10.081 7.66113Z" fill="black"/>
<path d="M18.5478 10.8867C18.4408 10.8867 18.3383 10.9292 18.2626 11.0048C18.187 11.0804 18.1445 11.183 18.1445 11.2899V12.4996C18.1445 12.6066 18.187 12.7091 18.2626 12.7847C18.3383 12.8604 18.4408 12.9028 18.5478 12.9028C18.6547 12.9028 18.7573 12.8604 18.8329 12.7847C18.9085 12.7091 18.951 12.6066 18.951 12.4996V11.2899C18.951 11.183 18.9085 11.0804 18.8329 11.0048C18.7573 10.9292 18.6547 10.8867 18.5478 10.8867Z" fill="black"/>
<path d="M2.01651 2.41973H5.24231C5.34926 2.41973 5.45182 2.37725 5.52744 2.30163C5.60306 2.22601 5.64554 2.12345 5.64554 2.01651C5.64554 1.90956 5.60306 1.807 5.52744 1.73138C5.45182 1.65576 5.34926 1.61328 5.24231 1.61328H2.01651C1.90956 1.61328 1.807 1.65576 1.73138 1.73138C1.65576 1.807 1.61328 1.90956 1.61328 2.01651C1.61328 2.12345 1.65576 2.22601 1.73138 2.30163C1.807 2.37725 1.90956 2.41973 2.01651 2.41973Z" fill="black"/>
<path d="M2.01651 3.62872H2.82296C2.9299 3.62872 3.03246 3.58623 3.10808 3.51062C3.1837 3.435 3.22618 3.33243 3.22618 3.22549C3.22618 3.11855 3.1837 3.01599 3.10808 2.94037C3.03246 2.86475 2.9299 2.82227 2.82296 2.82227H2.01651C1.90956 2.82227 1.807 2.86475 1.73138 2.94037C1.65576 3.01599 1.61328 3.11855 1.61328 3.22549C1.61328 3.33243 1.65576 3.435 1.73138 3.51062C1.807 3.58623 1.90956 3.62872 2.01651 3.62872Z" fill="black"/>
<path d="M21.37 12.9031H22.9829C23.0899 12.9031 23.1924 12.8606 23.268 12.785C23.3437 12.7094 23.3862 12.6068 23.3862 12.4999C23.3862 12.393 23.3437 12.2904 23.268 12.2148C23.1924 12.1392 23.0899 12.0967 22.9829 12.0967H21.37C21.2631 12.0967 21.1605 12.1392 21.0849 12.2148C21.0093 12.2904 20.9668 12.393 20.9668 12.4999C20.9668 12.6068 21.0093 12.7094 21.0849 12.785C21.1605 12.8606 21.2631 12.9031 21.37 12.9031Z" fill="black"/>
<path d="M22.581 11.6932H22.9842C23.0911 11.6932 23.1937 11.6507 23.2693 11.5751C23.3449 11.4994 23.3874 11.3969 23.3874 11.2899C23.3874 11.183 23.3449 11.0804 23.2693 11.0048C23.1937 10.9292 23.0911 10.8867 22.9842 10.8867H22.581C22.474 10.8867 22.3715 10.9292 22.2958 11.0048C22.2202 11.0804 22.1777 11.183 22.1777 11.2899C22.1777 11.3969 22.2202 11.4994 22.2958 11.5751C22.3715 11.6507 22.474 11.6932 22.581 11.6932Z" fill="black"/>
</svg>
