<svg width="25" height="25" viewBox="0 0 25 25" fill="none" xmlns="http://www.w3.org/2000/svg">
<g clip-path="url(#clip0_3447_927)">
<path d="M22.5 3.75H11.25V4.58333H22.5V3.75Z" fill="black"/>
<path d="M18.3333 5.41699H11.25V6.25033H18.3333V5.41699Z" fill="black"/>
<path d="M18.3333 7.08301H11.25V7.91634H18.3333V7.08301Z" fill="black"/>
<path d="M22.5007 2.08301H14.584V2.91634H22.5007V2.08301Z" fill="black"/>
<path d="M13.7493 2.08301H12.916V2.91634H13.7493V2.08301Z" fill="black"/>
<path d="M12.9173 16.667H12.084V17.5003H12.9173V16.667Z" fill="black"/>
<path d="M6.96051 2.79424L6.37134 2.20508L5.53801 3.03841C5.37535 3.20112 5.37535 3.46487 5.53801 3.62758L6.37134 4.46091L6.96051 3.87174L6.42176 3.33299L6.96051 2.79424Z" fill="black"/>
<path d="M10.2956 3.03841L9.46222 2.20508L8.87305 2.79424L9.4118 3.33299L8.87305 3.87174L9.46222 4.46091L10.2956 3.62758C10.4582 3.46487 10.4582 3.20112 10.2956 3.03841Z" fill="black"/>
<path d="M7.93763 1.95122L7.10352 4.45117L7.89362 4.71479L8.72773 2.21483L7.93763 1.95122Z" fill="black"/>
<path d="M21.6673 12.9167V9.58333H20.834V12.9167H20.0007V8.75H19.1673V12.9167H18.334V10.8333H17.5007V12.9167H16.6673V10.4167H15.834V12.9167H15.0007V11.25H14.1673V12.9167H13.334V13.75H22.5007V12.9167H21.6673Z" fill="black"/>
<path d="M22.0827 0H2.91602C1.53586 0.00135417 0.41737 1.11984 0.416016 2.5V10.6775V10.6812V15.4167V16.6667C0.41737 18.0468 1.53586 19.1653 2.91602 19.1667H8.07518L6.40852 22.5H4.16602C3.47565 22.5 2.91602 23.0596 2.91602 23.75C2.91602 24.4404 3.47565 25 4.16602 25H20.8327C21.523 25 22.0827 24.4404 22.0827 23.75C22.0827 23.0596 21.523 22.5 20.8327 22.5H18.5902L16.9235 19.1667H22.0827C23.4628 19.1653 24.5813 18.0468 24.5827 16.6667V2.5C24.5813 1.11984 23.4628 0.00135417 22.0827 0ZM1.24935 5.8625L2.19643 6.99C2.2756 7.08432 2.39247 7.13875 2.5156 7.13875H3.79102C3.91414 7.13875 4.03102 7.08432 4.11018 6.99L5.05768 5.8625L5.99268 6.16625L6.09602 7.63417C6.10456 7.75693 6.16695 7.86964 6.26643 7.94208L7.29852 8.69208C7.39836 8.76417 7.52482 8.7887 7.64435 8.75917L9.07477 8.40375L9.6531 9.19917L8.87352 10.4492C8.80893 10.554 8.79398 10.6819 8.83268 10.7987L9.22727 12.0117C9.26523 12.1286 9.35289 12.2229 9.46685 12.2692L10.8327 12.8229V13.8062L9.46602 14.36C9.3518 14.406 9.26398 14.5006 9.22643 14.6179L9.10143 15H6.70102C7.63477 13.045 6.80685 10.7032 4.85185 9.76943C3.70357 9.22099 2.36055 9.26359 1.24935 9.88375V5.8625ZM1.24935 10.875C2.59706 9.82359 4.54195 10.0638 5.59331 11.4116C6.40508 12.4521 6.46773 13.8929 5.74935 15H1.24935V10.875ZM20.8327 23.3333C21.0628 23.3333 21.2493 23.5199 21.2493 23.75C21.2493 23.9801 21.0628 24.1667 20.8327 24.1667H4.16602C3.93591 24.1667 3.74935 23.9801 3.74935 23.75C3.74935 23.5199 3.93591 23.3333 4.16602 23.3333H20.8327ZM17.6585 22.5H7.34018L9.00685 19.1667H15.9918L17.6585 22.5ZM23.7493 16.6667C23.7493 17.5871 23.0032 18.3333 22.0827 18.3333H2.91602C1.99555 18.3333 1.24935 17.5871 1.24935 16.6667V15.8333H5.96685H5.9706H23.7493V16.6667ZM23.7493 15H10.1056L11.406 14.4729C11.5631 14.4092 11.6659 14.2566 11.666 14.0871V12.5417C11.6661 12.372 11.5633 12.2192 11.406 12.1554L9.95768 11.5696L9.68352 10.7258L10.5093 9.40083C10.5989 9.25687 10.5923 9.07302 10.4927 8.93583L9.58435 7.68583C9.48461 7.54849 9.31159 7.48536 9.14685 7.52625L7.63185 7.90125L6.91602 7.38125L6.80643 5.82708C6.79451 5.65766 6.68091 5.5124 6.51935 5.46L5.0506 4.9825C4.88898 4.93104 4.71232 4.98182 4.60268 5.11125L3.59977 6.305H2.71102L1.70768 5.11125C1.59799 4.98167 1.42107 4.93083 1.25935 4.9825L1.24935 4.98625V2.5C1.24935 1.57953 1.99555 0.833333 2.91602 0.833333H22.0827C23.0032 0.833333 23.7493 1.57953 23.7493 2.5V15Z" fill="black"/>
</g>
<defs>
<clipPath id="clip0_3447_927">
<rect width="25" height="25" fill="white"/>
</clipPath>
</defs>
</svg>
