<svg width="21" height="25" viewBox="0 0 21 25" fill="none" xmlns="http://www.w3.org/2000/svg">
<path d="M17.7175 16.333L16.2503 15.9022L13.0581 13.8172V13.3394C13.9823 12.6423 14.617 11.5767 14.735 10.3553C15.1985 10.2807 15.5536 9.87789 15.5536 9.39371V8.07999C15.5536 8.07491 15.5531 8.06993 15.5528 8.06486V6.4007C15.7375 6.26847 15.8547 6.05309 15.8547 5.81149V4.28854L18.0577 3.91329C18.4197 3.85162 18.6801 3.56407 18.7057 3.19772C18.7312 2.83136 18.5132 2.51046 18.1633 2.39918L10.7367 0.0369751C10.5817 -0.0123413 10.418 -0.0122925 10.2631 0.0369263L2.83643 2.39918C2.48647 2.51046 2.26851 2.83136 2.29404 3.19767C2.31025 3.43043 2.42148 3.63112 2.59316 3.76256V5.75411H2.575C2.15679 5.75411 1.81655 6.09435 1.81655 6.51256V7.50114L1.32695 10.3748C1.24233 10.8718 1.62515 11.3267 2.13052 11.3267H3.78818C4.29243 11.3267 4.67656 10.8729 4.59175 10.3747L4.10215 7.50114V6.51256C4.10215 6.09435 3.76191 5.75411 3.3437 5.75411H3.32559V3.97858L5.14658 4.28873V5.81149C5.14658 6.05206 5.26323 6.2671 5.44702 6.39952L5.44771 8.08014V9.39371C5.44771 9.87794 5.80283 10.2807 6.26636 10.3553C6.38428 11.576 7.01826 12.6411 7.9416 13.3383V13.8183L4.7501 15.9029L3.28403 16.3332C1.71523 16.7937 0.607519 18.2339 0.607519 19.9082V20.9996C0.607519 21.2018 0.771436 21.3658 0.97373 21.3658C1.17603 21.3658 1.33994 21.2019 1.33994 20.9996V19.9082C1.33994 18.5886 2.22417 17.4075 3.49033 17.0359L4.85635 16.635L10.3137 19.8778C10.4245 19.9436 10.571 19.9471 10.6878 19.8778L16.1455 16.6348L17.5113 17.0358C18.7773 17.4074 19.6615 18.5885 19.6615 19.9079V23.4449C19.6615 23.8986 19.2924 24.2677 18.8388 24.2677H17.2247V22.6892C17.2247 22.4869 17.0607 22.323 16.8585 22.323C16.6562 22.323 16.4922 22.4869 16.4922 22.6892V24.2677H4.50747V22.6892C4.50747 22.4869 4.34356 22.323 4.14126 22.323C3.93897 22.323 3.77505 22.4869 3.77505 22.6892V24.2677H2.1626C1.70894 24.2677 1.33984 23.8986 1.33984 23.4449V22.7114C1.33984 22.5092 1.17593 22.3452 0.973633 22.3452C0.771338 22.3452 0.607422 22.5091 0.607422 22.7114V23.4449C0.607422 24.3024 1.30503 25 2.16255 25H18.8387C19.6962 25 20.3938 24.3024 20.3938 23.4449V19.9079C20.3938 18.2731 19.3239 16.8046 17.7175 16.333V16.333ZM3.78814 10.5943H2.13052C2.0793 10.5943 2.04023 10.5485 2.04893 10.4977L2.4918 7.8983H3.42686L3.86973 10.4977C3.87837 10.5484 3.8396 10.5943 3.78814 10.5943V10.5943ZM3.36973 6.51256V7.16593H2.54888V6.51256C2.54888 6.49816 2.56055 6.48649 2.57495 6.48649H3.3436C3.35806 6.48644 3.36973 6.49816 3.36973 6.51256V6.51256ZM9.19092 18.2213L9.33667 18.4453L5.59795 16.2237L7.97105 14.6737C8.07866 15.9364 8.49487 17.1515 9.19092 18.2213ZM9.18838 16.6404C10.0503 16.7629 10.9504 16.763 11.8129 16.6404C11.6462 17.0505 11.4409 17.4462 11.1965 17.8219L10.5006 18.8914L9.80479 17.8219C9.5604 17.4462 9.35503 17.0505 9.18838 16.6404V16.6404ZM11.8104 18.2213C12.5064 17.1515 12.9226 15.9364 13.0302 14.6737L15.4033 16.2237L11.6646 18.4453L11.8104 18.2213ZM13.9525 6.53707H14.8205V7.71373H14.3897C14.1486 7.71373 13.9524 7.51764 13.9524 7.27657V6.53707H13.9525ZM3.0584 3.09713L10.4852 0.734827C10.4947 0.731799 10.505 0.73175 10.5146 0.734875L17.9414 3.09713C17.9567 3.10201 17.9778 3.10865 17.9751 3.14679C17.9724 3.18488 17.9507 3.18854 17.9348 3.19127L15.4793 3.60948L14.5574 3.49547C14.3568 3.47062 14.1739 3.61329 14.1491 3.81398C14.1243 4.01471 14.2669 4.19752 14.4676 4.22233L15.1224 4.30333V5.8047L5.87896 5.80436V4.30328L9.66836 3.83439C10.2203 3.76617 10.7799 3.76617 11.3314 3.83439L12.7657 4.01178C12.9664 4.03663 13.1492 3.89401 13.1741 3.69332C13.1989 3.49259 13.0563 3.30978 12.8556 3.28492L11.4214 3.10753C10.8102 3.0319 10.1901 3.0319 9.57847 3.10753L5.52114 3.60958L3.06494 3.19127C3.04902 3.18854 3.0273 3.18488 3.02461 3.14679C3.02197 3.10865 3.04302 3.10197 3.0584 3.09713V3.09713ZM6.17988 7.71373L6.1794 6.53707H7.04878V7.27662C7.04878 7.51764 6.85269 7.71378 6.61157 7.71378H6.17988V7.71373ZM6.98589 10.1671C6.96704 9.86886 6.71919 9.63527 6.42168 9.63527C6.28843 9.63527 6.18003 9.52687 6.18003 9.39366V8.44615H6.61157C7.25645 8.44615 7.78115 7.9215 7.78115 7.27662V6.53707H13.2201V7.27662C13.2201 7.9215 13.7448 8.44615 14.3897 8.44615H14.8212V9.39366C14.8212 9.52687 14.7128 9.63527 14.5795 9.63527C14.282 9.63527 14.0342 9.86886 14.0153 10.1671C13.8987 12.0162 12.3548 13.4647 10.5006 13.4647C8.64634 13.4647 7.10254 12.0162 6.98589 10.1671V10.1671ZM10.5006 14.197C11.152 14.197 11.771 14.0481 12.3257 13.7833V14.0154C12.3257 14.6415 12.2413 15.2591 12.0786 15.8548C11.0834 16.0446 9.95825 16.0523 8.92266 15.8548C8.76001 15.2592 8.67554 14.6416 8.67554 14.0154C8.67554 14.0076 8.67446 14.0001 8.67398 13.9924C8.67388 13.9909 8.67402 13.9894 8.67393 13.9879V13.7826C9.22905 14.0478 9.84868 14.197 10.5006 14.197V14.197Z" fill="black"/>
</svg>
