<svg width="46" height="65" viewBox="0 0 46 65" fill="none" xmlns="http://www.w3.org/2000/svg">
<path d="M22.9719 65L4.18634 59.7793L0 12.7742H46.0001L41.8093 59.7722L22.9719 65Z" fill="#4353AD"/>
<path d="M38.2217 56.7794L41.8025 16.6177H23V61.0039L38.2217 56.7794" fill="#485FB5"/>
<path d="M23.0006 49.023L22.9754 49.0296L16.562 47.2959L16.1519 42.6982H10.3711L11.1778 51.75L22.9741 55.0283L23.0006 55.021V49.023ZM8.56055 22.3822L9.08401 28.1471H23.0006V22.3822H8.56055ZM9.59768 34.0505L10.1138 39.8155H23.0006V34.0505H9.59768" fill="#EDEDED"/>
<path d="M27.5656 6.34491e-05H34.5405V2.53905H30.4826V3.04709H34.5405V8.88672H27.5656V6.22052H31.6238V5.71288H27.5659V6.34491e-05H27.5656ZM19.1959 6.34491e-05H26.1705V2.53905H22.1127V3.04709H26.1705V8.88672H19.1961V6.22052H23.2541V5.71288H19.1957V6.34491e-05H19.1959ZM10.8262 6.34491e-05H17.8008V2.91988H13.743V5.84009H17.8011V8.75991H10.8262V6.34491e-05Z" fill="#100F0D"/>
<path d="M36.3667 34.0514L37.4062 22.3832H22.9807V28.148H31.0952L30.5713 34.0514H22.9807V39.8164H30.072L29.4031 47.2934L22.9805 49.0286V55.0264L34.7861 51.7509L34.8725 50.7771L36.2262 35.5995L36.3667 34.0514Z" fill="white"/>
</svg>
