<svg width="162" height="37" viewBox="0 0 162 37" fill="none" xmlns="http://www.w3.org/2000/svg">
<path fill-rule="evenodd" clip-rule="evenodd" d="M154.373 2.70605L161.139 2.74323C161.139 2.74323 148.56 19.7883 147.533 21.1775C147.199 21.6274 146.692 22.1125 146.435 22.7139C145.786 24.2257 145.119 27.5419 145.119 27.5419L138.928 27.5726C138.928 27.5726 139.891 24.1161 139.852 22.2749C139.817 20.6663 138.996 19.06 138.535 17.4468C138.07 15.8141 137.438 12.6187 137.438 12.6187H143.802L144.68 16.1301L154.373 2.70605Z" fill="#1A1918"/>
<path fill-rule="evenodd" clip-rule="evenodd" d="M141.561 6.30088C142.81 7.05372 143.576 11.2058 143.576 11.2058C143.576 11.2058 137.043 11.3021 133.487 11.3021H130.415L126.684 27.5421H120.979C120.979 27.5421 124.529 9.89344 125.368 6.69372C125.64 5.65803 127.229 5.83555 129.912 5.83555H134.198C136.966 5.83555 140.201 5.48237 141.561 6.30088Z" fill="#1A1918"/>
<path fill-rule="evenodd" clip-rule="evenodd" d="M114.999 14.2108C114.999 14.2108 115.177 13.1683 114.396 11.9613C113.729 10.9321 113.112 10.6929 111.356 10.6381C106.399 10.4822 106.495 14.1559 106.495 14.1559L114.999 14.2108ZM120.376 10.0039C121.102 12.6242 119.718 18.782 119.718 18.782C119.718 18.782 112.486 18.6612 108.525 18.782C107.294 18.8195 105.819 18.6482 105.453 19.221C104.937 20.024 105.641 21.2599 106.238 21.7819C106.926 22.3832 108.264 22.4514 108.745 22.5127C111.96 22.9211 118.688 22.6181 118.688 22.6181L117.523 27.7795C117.523 27.7795 108.014 28.256 103.258 27.1212C102.319 26.8975 101.439 26.4455 100.844 25.8045C100.682 25.6291 100.541 25.39 100.388 25.1836C100.265 25.0188 99.9074 24.4769 99.7469 24.0488C98.6607 21.1542 99.8742 15.6086 101.064 12.6373C101.202 12.2927 101.375 11.8562 101.558 11.4851C101.786 11.0222 101.979 10.4999 102.161 10.2232C102.284 10.0324 102.435 9.90938 102.563 9.72938C102.71 9.51655 102.881 9.31021 103.039 9.12619C103.478 8.61686 103.976 8.25686 104.575 7.80949C106.557 6.32582 110.143 5.17363 114.45 5.6148C116.072 5.78148 118.522 6.36082 119.718 8.02884C120.038 8.47435 120.196 9.35854 120.376 10.0039Z" fill="#1A1918"/>
<path fill-rule="evenodd" clip-rule="evenodd" d="M94.2053 5.81604L99.7379 5.7832C99.7379 5.7832 96.6547 20.4099 95.0833 27.5424H88.7189C84.2706 27.5424 80.3094 28.0932 78.624 24.9087C76.9892 21.8168 78.5494 16.7319 79.2824 13.2775C79.8004 10.8328 80.8912 5.83587 80.8912 5.83587L86.6233 5.7832C86.6233 5.7832 85.0036 13.5628 84.3298 17.4472C84.0885 18.8386 83.5906 20.1488 84.1105 21.178C84.6043 22.157 85.2955 22.227 87.4022 22.2753C88.0695 22.2908 90.2552 22.2753 90.2552 22.2753L94.2053 5.81604Z" fill="#1A1918"/>
<path fill-rule="evenodd" clip-rule="evenodd" d="M68.3097 16.3499C68.889 14.2915 69.7339 12.0596 69.6264 10.2051C69.5102 8.22139 67.8468 6.4152 66.7736 6.03568C63.5411 4.89434 60.5149 6.48986 59.3122 7.79106C57.756 9.47674 57.2293 11.4453 56.6785 14.1555C56.2683 16.1677 55.9325 18.2921 56.6785 19.8612C57.9995 22.6353 62.1187 22.0296 66.554 22.0559C67.2123 20.2916 67.7567 18.3097 68.3097 16.3499ZM75.9908 8.23006C76.6228 12.8255 74.1979 17.8974 72.5277 22.3081C74.2307 22.4618 75.7231 22.2843 75.8306 22.4113C75.9424 22.5761 74.6893 27.6762 74.2524 27.6892C72.9007 27.7245 68.4218 27.7617 66.554 27.7617C60.4597 27.7617 54.7583 28.1589 51.8507 25.1283C50.67 23.8971 49.8537 21.7858 49.656 20.3002C49.3267 17.8202 49.7394 15.0902 50.3144 12.8388C50.8345 10.8064 51.5016 8.88841 52.5091 7.13272C55.07 2.66247 59.525 -0.655588 66.993 0.110262C68.4413 0.25959 70.5217 0.89377 71.821 1.6463C71.9109 1.69928 72.225 1.94929 72.2972 1.99328C74.0529 3.11046 75.6528 5.77668 75.9908 8.23006Z" fill="#1A1918"/>
<path fill-rule="evenodd" clip-rule="evenodd" d="M49.0265 5.84274C48.6578 7.5216 48.2891 9.42445 47.9006 11.0835H41.7559C42.232 9.24445 42.5964 7.41626 43.0725 5.81641C45.0389 5.81641 46.8671 5.84274 49.0265 5.84274Z" fill="#1A1918"/>
<path fill-rule="evenodd" clip-rule="evenodd" d="M41.535 12.6191H47.4601C46.6856 16.9075 45.1517 23.8246 43.949 28.6394C43.1962 31.6526 42.6937 33.8516 40.657 35.4425C40.4748 35.5853 40.3698 35.5175 40.2183 35.6622C39.8428 36.02 38.1069 36.4348 37.1459 36.5399C35.5832 36.709 33.8167 36.5619 31.8965 36.5225C32.399 34.6856 32.9675 32.4801 33.4152 30.8341C38.0961 31.4004 38.2147 26.976 39.1209 22.7143C39.6454 20.2519 41.2345 13.6068 41.535 12.6191Z" fill="#1A1918"/>
<path fill-rule="evenodd" clip-rule="evenodd" d="M27.7097 23.8121L27.5827 24.1411C25.4187 28.3545 21.5848 30.9399 16.116 31.0539C13.5595 31.1066 11.1235 30.4507 9.53227 29.7372C6.09803 28.1943 3.20967 25.3329 1.63212 22.2757C-0.630726 17.8932 -1.03875 11.7967 3.66633 7.24316C3.73883 7.24316 3.09566 8.23053 3.16816 8.23053L3.03866 8.65187C-0.351897 19.2669 10.094 28.3635 20.2483 27.3232C22.6886 27.0731 25.8007 25.7366 27.7097 23.8121Z" fill="#21609B"/>
<path fill-rule="evenodd" clip-rule="evenodd" d="M21.565 19.4226C24.1196 19.4402 26.788 18.2462 28.3681 16.5698C26.9857 20.079 22.983 22.3348 17.6149 21.6173C13.1205 21.0159 8.8389 16.493 8.39774 11.9611C8.07522 8.66287 9.22493 6.69434 11.1191 4.30664C10.4608 5.55548 10.2148 6.51868 10.1534 7.13303C9.43374 14.2676 15.8527 19.3854 21.565 19.4226Z" fill="#21609B"/>
<path fill-rule="evenodd" clip-rule="evenodd" d="M28.1113 10.561C27.7141 11.4718 25.4274 13.1922 24.4178 13.4072C20.4194 14.2589 17.8585 12.3628 16.5173 10.2053C16.3178 9.88281 15.9491 9.00295 15.8831 8.77895C15.363 7.01025 15.6021 4.33504 17.154 2.9502C16.6865 4.26689 16.6183 5.79642 16.8643 6.7906C17.0133 7.39194 17.4675 8.44126 17.922 9.10147C18.7492 10.3041 19.2737 10.5963 20.336 11.2348C20.8144 11.5223 21.3277 11.7528 21.5496 11.8163C22.5567 12.1125 24.6833 12.8938 28.1113 10.561Z" fill="#21609B"/>
</svg>
