<svg width="65" height="65" viewBox="0 0 65 65" fill="none" xmlns="http://www.w3.org/2000/svg">
<path d="M0 0H65V65H0V0Z" fill="#F7DF1E"/>
<path d="M17.0899 54.3193L22.0642 51.3089C23.0238 53.0104 23.8968 54.45 25.9907 54.45C27.9979 54.45 29.2633 53.6648 29.2633 50.6109V29.8418H35.3717V50.6972C35.3717 57.0239 31.6632 59.9036 26.2526 59.9036C21.3661 59.9036 18.5296 57.3728 17.0898 54.3187" fill="black"/>
<path d="M38.6914 53.6643L43.665 50.7846C44.9743 52.9228 46.676 54.4935 49.6864 54.4935C52.2174 54.4935 53.8314 53.228 53.8314 51.4827C53.8314 49.3884 52.1734 48.6466 49.3809 47.4253L47.8542 46.7703C43.4471 44.8945 40.5237 42.5384 40.5237 37.5643C40.5237 32.9829 44.0142 29.4922 49.4684 29.4922C53.3517 29.4922 56.1441 30.8449 58.151 34.3792L53.395 37.4332C52.3478 35.5572 51.2137 34.8156 49.4685 34.8156C47.6796 34.8156 46.5451 35.95 46.5451 37.4332C46.5451 39.2658 47.6796 40.0077 50.2972 41.1422L51.8242 41.7967C57.0165 44.0221 59.9399 46.2907 59.9399 51.3954C59.9399 56.8934 55.6204 59.9037 49.8175 59.9037C44.1453 59.9037 40.4801 57.1987 38.6915 53.6643" fill="black"/>
</svg>
